HIERARCHY
ROOT Hips
{
	OFFSET	0.00	0.00	0.00
	CHANNELS 6 Xposition Yposition Zposition Zrotation Xrotation Yrotation
	JOINT Spine
	{
		OFFSET	 0.00	0.01	 0.00
		CHANNELS 3 Zrotation Xrotation Yrotation
		JOINT Spine1
		{
			OFFSET	 0.00	 2.45913012437421	 0.00
			CHANNELS 3 Zrotation Xrotation Yrotation
            JOINT Neck
            {
                OFFSET	 0.00	 2.48462964506057	 0.00
                CHANNELS 3 Zrotation Xrotation Yrotation
                JOINT Head
                {
                    OFFSET	 0.00	 0.927524780924562	 0.00
                    CHANNELS 3 Zrotation Xrotation Yrotation
                    End Site 
                    {
                        OFFSET	 0.00	 1.14999962169752	 0.00
                    }
                }
            }
			JOINT LeftShoulder
			{
				OFFSET	 0.00	 2.48462964506057	 0.00
				CHANNELS 3 Zrotation Xrotation Yrotation
				JOINT LeftUpArm
				{
					OFFSET	 0.00	 1.24881979654096	 0.00
					CHANNELS 3 Zrotation Xrotation Yrotation
					JOINT LeftForeArm
					{
						OFFSET	 0.00	2.59758046908119	 0.00
						CHANNELS 3 Zrotation Xrotation Yrotation
						JOINT LeftHand
						{
							OFFSET	 0.00	2.45542024364365	 0.00
							CHANNELS 3 Zrotation Xrotation Yrotation
							JOINT LeftHandThumb 
							{
								OFFSET	 0.00	0.00	 0.00
								CHANNELS 3 Zrotation Xrotation Yrotation
								End Site
								{
									OFFSET	 0.00	0.00	1.00000003353624
								}
							}
							JOINT L_Wrist_End 
							{
								OFFSET	 0.00	0.99999967115358	 0.00
								CHANNELS 3 Zrotation Xrotation Yrotation
								End Site 
								{
									OFFSET	 0.00	 0.00	 0.00
								}
							}
						}
					}
				}
			}
			JOINT RightShoulder
			{
				OFFSET	 0.00	 2.48462964506057	 0.00
				CHANNELS 3 Zrotation Xrotation Yrotation
				JOINT RightUpArm
				{
					OFFSET	 0.00	 1.24881979654096	 0.00
					CHANNELS 3 Zrotation Xrotation Yrotation
					JOINT RightForeArm
					{
						OFFSET	 0.00	2.59758046908119	 0.00
						CHANNELS 3 Zrotation Xrotation Yrotation
						JOINT RightHand
						{
							OFFSET	 0.00	2.45542024364365	 0.00
							CHANNELS 3 Zrotation Xrotation Yrotation
							JOINT RightHandThumb 
							{
								OFFSET	 0.00	0.00	 0.00
								CHANNELS 3 Zrotation Xrotation Yrotation
								End Site
								{
									OFFSET	 0.00	0.00	1.00000003353624
								}
							}
							JOINT R_Wrist_End 
							{
								OFFSET	 0.00	0.99999967115358	 0.00
								CHANNELS 3 Zrotation Xrotation Yrotation
								End Site 
								{
									OFFSET	 0.00	 0.00	 0.00
								}
							}
						}
					}
				}
			}
		}
	}
	JOINT LeftUpLeg
	{
		OFFSET	 1.2719394002717	 0.00	 0.00
		CHANNELS 3 Zrotation Xrotation Yrotation
		JOINT LeftLowLeg
		{
			OFFSET	 0.00	-4.3429100912261	 0.00
			CHANNELS 3 Zrotation Xrotation Yrotation
			JOINT LeftFoot
			{
				OFFSET	 0.00	-4.48767017425826	 0.00
				CHANNELS 3 Zrotation Xrotation Yrotation
				JOINT LeftToeBase
                {
                    OFFSET	 0.00	0.00	 1.51507020887566
                    CHANNELS 3 Zrotation Xrotation Yrotation
                    End Site 
                    {
                        OFFSET	 0.00	0.00	 0.75000010571191
                    }
                }
			}
		}
	}
	JOINT RightUpLeg
	{
		OFFSET	 -1.2719393604653	 0.00	 0.00
		CHANNELS 3 Zrotation Xrotation Yrotation
		JOINT RightLowLeg
		{
			OFFSET	 0.00	-4.3429100912261	 0.00
			CHANNELS 3 Zrotation Xrotation Yrotation
			JOINT RightFoot
			{
				OFFSET	 0.00	-4.48767017425826	 0.00
				CHANNELS 3 Zrotation Xrotation Yrotation
				JOINT RightToeBase
                {
                    OFFSET	 0.00	0.00	 1.51507020887566
                    CHANNELS 3 Zrotation Xrotation Yrotation
                    End Site 
                    {
                        OFFSET	 0.00	0.00	 0.749999965609858
                    }
                }   
			}
		}
	}
}
MOTION 
Frames:	18 
Frame Time: 0.02 
  -2.9532598876953124 -6.51343017578125 9.238060302734375 70.6528 86.628 1781.8 1.67754 -14.2002 0.253808 -4.31783 24.1976 6.45219 -46.5924 24.8095 437.398 -93.9696 -75.94 -438.351 -116.1911 -0.0932061 369.595 -38.8307 15.8887 32.8651 0.0 119.787 0.0 16.6714 -12.3845 41.0006 0.0 0.0 0.0 0.0 0.0 0.0 116.8962 -4.11363 -365.121 39.3436 -0.487463 -23.2573 0.0 111.093 0.0 27.9753 0.535354 62.5722 0.0 0.0 0.0 0.0 0.0 0.0 4.58285 -6.57656 -39.855 0.0 28.398 0.0 -18.5243 -2.3111992 0.640784 0.0 -26.253601 0.0 1.16962 1.667 15.2236 0.0 26.1654 0.0 28.9329 -10.3281 0.953708 0.0 -19.65439 0.0 
  -3.05531005859375 -6.56197998046875 9.227670288085937 57.9004 86.6151 1797.54 1.66733 -13.5911 -0.770997 -3.35409 24.6031 5.71456 -46.0089 24.6865 436.697 -93.9283 -75.4703 -438.339 -116.1109 0.297066 370.017 -38.5744 16.3875 32.9003 0.0 119.917 0.0 17.7784 -11.8244 41.0686 0.0 0.0 0.0 0.0 0.0 0.0 116.9773 -4.21558 -364.924 38.8649 -0.403819 -23.4467 0.0 111.516 0.0 27.3707 0.612146 63.6844 0.0 0.0 0.0 0.0 0.0 0.0 4.81686 -8.41126 -40.7966 0.0 30.6001 0.0 -19.6546 -2.0709991 0.756471 0.0 -26.5842 0.0 2.62531 2.31817 12.6432 0.0 25.1427 0.0 28.3017 -10.2544 0.088035 0.0 -19.6405 0.0 
  -3.160400085449219 -6.603489990234375 9.210289916992188 41.3172 86.9373 1817.24 1.6617 -13.4332 -1.92471 -1.96226 24.9776 5.07063 -45.5693 24.3783 436.039 -93.3027 -74.8435 -437.766 -116.110596 0.851909 369.8 -38.7031 16.4303 33.5224 0.0 120.142 0.0 19.1738 -11.2072 41.455 0.0 0.0 0.0 0.0 0.0 0.0 117.1603 -4.4662 -365.203 37.6844 0.244367 -23.3263 0.0 112.167 0.0 26.5802 0.689732 64.9529 0.0 0.0 0.0 0.0 0.0 0.0 5.12043 -11.1825 -40.6198 0.0 32.979 0.0 -18.5336 -1.6900997 1.16319 0.0 -26.7557 0.0 4.19306 2.28825 9.96198 0.0 24.0485 0.0 27.7104 -10.195101 -0.679725 0.0 -19.54373 0.0 
  -3.2698800659179685 -6.6372998046875 9.189290161132812 25.4558 87.0373 1835.98 1.73422 -13.0189 -2.73873 -0.791859 24.9963 4.62926 -45.0883 24.0652 435.422 -92.7435 -74.2941 -437.144 -116.1767 1.29288 370.288 -38.5501 17.0849 33.5631 0.0 120.386 0.0 20.2379 -11.0174 42.1353 0.0 0.0 0.0 0.0 0.0 0.0 117.013504 -4.56669 -365.516 37.692 0.377629 -22.4739 0.0 112.629 0.0 27.3169 0.706229 65.276 0.0 0.0 0.0 0.0 0.0 0.0 5.298 -13.7792 -39.6745 0.0 34.7509 0.0 -19.302 -1.4930992 1.62588 0.0 -26.387901 0.0 5.53828 1.95612 7.51966 0.0 23.2062 0.0 27.2734 -10.325199 -1.23591 0.0 -19.347 0.0 
  -3.371000061035156 -6.667169799804688 9.168489990234375 15.4279 86.8404 1848.74 1.95025 -12.4459 -3.25327 0.0903134 25.0014 4.29836 -44.3611 23.7599 434.811 -91.4069 -74.0048 -435.233 -116.1598 1.75926 371.219 -38.4591 17.9414 33.1045 0.0 120.565 0.0 20.6759 -10.9358 42.2074 0.0 0.0 0.0 0.0 0.0 0.0 116.8517 -4.81353 -365.351 38.1008 0.145394 -21.9678 0.0 113.054 0.0 27.7247 0.515949 65.1959 0.0 0.0 0.0 0.0 0.0 0.0 5.33997 -15.995 -37.7754 0.0 36.1093 0.0 -19.3336 -1.3262005 2.62141 0.0 -25.929 0.0 6.66454 1.70284 5.34441 0.0 22.6057 0.0 26.9119 -10.587099 -1.76494 0.0 -19.139801 0.0 
  -3.469110107421875 -6.691019897460937 9.150659790039063 8.36635 86.7993 1858.26 2.17831 -11.9304 -3.48542 0.701794 25.0559 4.17007 -44.002 23.3734 434.366 -91.7868 -73.4183 -435.818 -115.9758 2.11205 371.88 -38.6802 18.6906 32.6764 0.0 120.692 0.0 20.3964 -11.1305 42.2877 0.0 0.0 0.0 0.0 0.0 0.0 116.7752 -5.03113 -365.38 38.4138 0.0413756 -21.4717 0.0 113.471 0.0 27.4637 0.340837 65.3602 0.0 0.0 0.0 0.0 0.0 0.0 5.36209 -17.9311 -34.7072 0.0 36.6543 0.0 -19.0333 -1.3033009 4.24854 0.0 -25.2062 0.0 7.52689 1.14223 3.75529 0.0 22.348 0.0 26.5879 -11.084 -2.53117 0.0 -18.90037 0.0 
  -3.5616299438476564 -6.712319946289062 9.138519897460938 4.10304 86.8952 1864.69 2.28269 -11.4456 -3.63054 1.25794 25.1705 4.21083 -44.0072 22.8918 434.255 -92.8069 -72.8317 -437.099 -116.0007 2.32577 372.07 -39.045 19.092 32.6369 0.0 120.814 0.0 20.7045 -11.5695 42.7573 0.0 0.0 0.0 0.0 0.0 0.0 116.7487 -5.11578 -365.536 38.3943 0.138758 -21.0886 0.0 113.841 0.0 26.9866 0.12166 65.6844 0.0 0.0 0.0 0.0 0.0 0.0 5.47076 -19.3006 -30.3794 0.0 36.1645 0.0 -18.1347 -1.4405994 6.61758 0.0 -24.500511 0.0 8.11921 0.508754 2.77324 0.0 22.2741 0.0 26.3533 -11.655199 -3.43251 0.0 -18.79235 0.0 
  -3.645929870605469 -6.7285699462890625 9.133790283203124 0.402865 87.2631 1870.36 2.37494 -11.1853 -3.58899 1.48126 25.4056 4.31118 -44.1194 22.563 434.195 -94.0134 -72.3687 -438.415 -116.117004 2.47053 372.11 -39.2987 19.2506 32.4865 0.0 120.876 0.0 20.8099 -11.7375 43.3658 0.0 0.0 0.0 0.0 0.0 0.0 116.8239 -4.96904 -365.9 38.4189 0.217907 -20.2952 0.0 114.132 0.0 27.263 0.00407165 65.9236 0.0 0.0 0.0 0.0 0.0 0.0 5.49699 -20.1361 -24.9828 0.0 34.6753 0.0 -16.6501 -1.7001991 9.68155 0.0 -23.86661 0.0 8.36753 -0.189514 2.14269 0.0 22.2172 0.0 26.2273 -12.3167 -4.4655 0.0 -18.60082 0.0 
  -3.717489929199219 -6.73989013671875 9.137000122070312 -9.75746 87.8524 1882.26 2.49308 -11.4981 -3.45689 1.48129 25.9766 4.40053 -44.225 21.9584 434.401 -93.9061 -72.0669 -438.076 -116.4205 2.36313 371.889 -39.9339 19.2333 31.7516 0.0 120.905 0.0 19.3249 -12.6119 43.3466 0.0 0.0 0.0 0.0 0.0 0.0 116.826004 -4.53993 -366.3 38.4776 0.272659 -20.0855 0.0 114.431 0.0 25.3488 -0.773586 64.7645 0.0 0.0 0.0 0.0 0.0 0.0 5.53059 -20.48 -18.2126 0.0 32.1274 0.0 -14.5203 -1.9540005 12.9581 0.0 -24.00156 0.0 8.29904 -1.03887 1.69658 0.0 22.0794 0.0 26.2067 -12.8717 -5.37026 0.0 -18.426281 0.0 
  -3.7782000732421874 -6.7475 9.1485498046875 -10.8013 88.4461 1885.09 2.54687 -11.5325 -3.39163 1.41393 26.6166 4.37692 -44.5845 21.6608 434.589 -94.4946 -71.7802 -438.759 -116.6657 2.20171 372.241 -39.5046 19.3255 31.1541 0.0 120.89 0.0 19.8593 -11.9727 43.4378 0.0 0.0 0.0 0.0 0.0 0.0 116.7572 -4.00494 -366.197 38.5404 0.0155733 -20.7187 0.0 114.647 0.0 22.7007 -1.62342 64.2476 0.0 0.0 0.0 0.0 0.0 0.0 5.30428 -19.9294 -11.1522 0.0 29.1671 0.0 -14.0561 -2.3924007 14.3148 0.0 -23.50663 0.0 7.99083 -1.27672 0.978326 0.0 21.7376 0.0 26.2172 -13.224701 -6.13403 0.0 -18.26973 0.0 
  -3.8369100952148436 -6.7585302734375 9.166589965820313 -19.023 89.1372 1895.4 2.23606 -11.6321 -3.65128 1.48472 27.1622 4.27994 -44.5898 21.5611 434.493 -94.9398 -71.5961 -439.099 -116.9181 1.84137 372.238 -39.0685 19.2836 30.9029 0.0 120.757 0.0 20.2981 -11.3452 43.2 0.0 0.0 0.0 0.0 0.0 0.0 116.9347 -3.4166 -366.034 38.3913 -0.0943685 -19.5478 0.0 114.534 0.0 27.2203 -1.10072 65.6843 0.0 0.0 0.0 0.0 0.0 0.0 4.96259 -19.181 -7.07351 0.0 25.5977 0.0 0.0862457 0.901 15.8576 0.0 -23.50667 0.0 7.57273 -1.42431 -0.0413023 0.0 21.1199 0.0 26.1924 -13.4545 -6.98126 0.0 -18.19333 0.0 
  -3.8914300537109376 -6.762210083007813 9.185609741210937 -70.1055 89.681 1948.81 2.10547 -11.5691 -3.83773 1.44291 27.3417 4.0815 -44.5896 21.5737 434.294 -95.0675 -71.4078 -439.274 -117.0614 1.74013 372.125 -40.0096 18.8082 29.9057 0.0 120.574 0.0 18.2578 -12.146 42.4817 0.0 0.0 0.0 0.0 0.0 0.0 117.022 -3.27754 -365.758 38.2338 -0.137331 -20.0092 0.0 114.603 0.0 26.8548 -2.05604 65.6574 0.0 0.0 0.0 0.0 0.0 0.0 4.04826 -18.6854 -8.25056 0.0 22.4723 0.0 -1.32351 0.52820015 14.4346 0.0 -22.91565 0.0 7.09093 -1.48451 -1.2132 0.0 20.3744 0.0 26.2798 -13.718 -7.83136 0.0 -18.06842 0.0 
  -3.9498300170898437 -6.763309936523438 9.199390258789062 -132.942 89.2498 2013.97 2.11053 -11.3704 -3.89295 1.37742 26.9948 3.96482 -44.3974 21.8063 433.91 -95.312 -71.2762 -439.722 -116.8341 1.61871 372.033 -40.2944 18.4225 29.8562 0.0 120.431 0.0 17.9986 -12.2748 41.7951 0.0 0.0 0.0 0.0 0.0 0.0 117.0419 -3.3158 -365.639 38.1844 -0.119155 -20.4713 0.0 114.683 0.0 26.6016 -2.9836 65.6379 0.0 0.0 0.0 0.0 0.0 0.0 3.32256 -18.5468 -9.19201 0.0 19.6638 0.0 -2.71476 1.2421999 12.7334 0.0 -23.58223 0.0 6.60895 -1.86197 -2.8815 0.0 19.8589 0.0 26.3066 -13.833799 -8.23053 0.0 -18.01387 0.0 
  -4.009909973144532 -6.75906005859375 9.206640014648437 -132.944 88.4952 2016.1 2.40431 -11.2536 -3.67731 1.08867 26.2875 3.88586 -44.0341 22.2778 433.341 -95.9999 -71.2521 -440.403 -116.2543 1.37674 371.753 -40.7243 18.1234 30.0509 0.0 120.275 0.0 17.2596 -12.5265 41.1142 0.0 0.0 0.0 0.0 0.0 0.0 116.884705 -3.25028 -365.5 38.3866 -0.380646 -21.1784 0.0 114.912 0.0 25.9372 -4.18592 65.3005 0.0 0.0 0.0 0.0 0.0 0.0 2.83166 -19.0218 -9.55271 0.0 17.9018 0.0 -9.1515 0.1413002 9.81652 0.0 -24.47519 0.0 6.22068 -2.59072 -4.33611 0.0 19.4971 0.0 26.3728 -14.101801 -8.61616 0.0 -17.81611 0.0 
  -4.062160034179687 -6.751900024414063 9.212379760742188 -133.721 87.8738 2018.88 2.80609 -11.1988 -3.28243 0.661959 25.8649 3.87269 -43.4318 22.3417 432.792 -95.9919 -71.0711 -440.482 -115.673004 1.47177 371.486 -41.0273 17.6441 30.1189 0.0 120.465 0.0 16.4037 -13.0633 40.0574 0.0 0.0 0.0 0.0 0.0 0.0 116.8739 -3.40927 -365.586 38.3822 -0.191767 -21.6113 0.0 115.174 0.0 25.6484 -5.01931 65.0357 0.0 0.0 0.0 0.0 0.0 0.0 2.36301 -19.6412 -9.52112 0.0 17.2188 0.0 -14.4773 -0.27229977 7.94457 0.0 -24.93674 0.0 5.80031 -3.17516 -5.81363 0.0 19.2195 0.0 26.4685 -14.3799 -8.88912 0.0 -17.77643 0.0 
  -4.113340148925781 -6.741589965820313 9.220650024414063 -138.071 87.463 2025.2 3.49826 -11.0607 -2.46422 -0.193427 25.8511 3.94012 -42.4435 22.6289 431.65 -96.1298 -70.7329 -440.61 -115.0426 1.97459 371.571 -41.0648 17.5427 29.9875 0.0 120.729 0.0 16.2806 -13.454 39.7898 0.0 0.0 0.0 0.0 0.0 0.0 117.0711 -3.62394 -365.402 38.4936 -0.189192 -21.9273 0.0 115.534 0.0 25.1351 -5.82948 64.5601 0.0 0.0 0.0 0.0 0.0 0.0 1.77044 -20.0866 -10.7856 0.0 17.304 0.0 -13.6361 0.06499958 8.43928 0.0 -24.99375 0.0 5.45862 -3.4314 -6.39579 0.0 18.8911 0.0 26.4316 -14.9086 -10.0052 0.0 -17.65256 0.0 
  -4.1637399291992185 -6.734169921875 9.2275 -140.158 87.1168 2029.21 3.75347 -11.0067 -2.18256 -0.363436 26.0539 4.03204 -42.0677 22.3879 431.081 -95.8383 -70.2009 -440.581 -114.7852 2.4624 371.592 -41.2482 17.2561 29.5716 0.0 121.067 0.0 15.9488 -13.992 39.9886 0.0 0.0 0.0 0.0 0.0 0.0 116.8211 -3.43374 -365.565 38.6618 -0.0895989 -22.0258 0.0 115.897 0.0 24.8423 -6.26557 65.1733 0.0 0.0 0.0 0.0 0.0 0.0 1.33626 -20.7532 -11.6963 0.0 18.3504 0.0 -12.8516 -0.008399963 9.3263 0.0 -24.760891 0.0 5.16312 -3.71449 -7.38961 0.0 18.6729 0.0 26.5428 -15.3748 -10.7904 0.0 -17.46353 0.0 
  -4.210679931640625 -6.721929931640625 9.231519775390625 -140.73 86.9178 2031.42 4.17328 -10.9928 -1.85694 -0.569384 26.3685 4.05952 -41.5975 22.1448 430.413 -95.2469 -69.6815 -440.129 -114.548904 2.76163 371.645 -41.6093 17.0646 29.046 0.0 121.288 0.0 16.0921 -14.2275 39.8374 0.0 0.0 0.0 0.0 0.0 0.0 116.4667 -2.94543 -366.294 38.9593 0.2735 -21.5928 0.0 116.315 0.0 24.6977 -7.16933 66.3263 0.0 0.0 0.0 0.0 0.0 0.0 0.995486 -21.4077 -12.2312 0.0 19.8938 0.0 -12.6073 -0.6913996 11.7592 0.0 -24.16757 0.0 4.93965 -3.95008 -8.20122 0.0 18.5297 0.0 26.4697 -15.6754 -11.4933 0.0 -17.512249 0.0 
